<svg class="icon" viewBox="0 0 1024 1024" version="1.1" xmlns="http://www.w3.org/2000/svg"
>
  <path
    d="M877.226667 766.293333c-8.533333 0-15.36-3.413333-20.48-10.24-8.533333-11.946667-5.12-27.306667 6.826666-35.84 64.853333-44.373333 92.16-126.293333 68.266667-201.386666-22.186667-69.973333-90.453333-114.346667-174.08-114.346667h-51.2c-11.946667 0-22.186667-8.533333-25.6-18.773333-30.72-119.466667-134.826667-209.92-257.706667-225.28-124.586667-13.653333-245.76 51.2-303.786666 162.133333S78.506667 568.32 160.426667 662.186667c8.533333 10.24 8.533333 27.306667-1.706667 35.84-10.24 10.24-27.306667 8.533333-35.84-1.706667C27.306667 587.093333 6.826667 426.666667 73.386667 298.666667s209.92-204.8 353.28-187.733334c138.24 15.36 254.293333 112.64 295.253333 244.053334h32.426667c107.52 0 194.56 58.026667 223.573333 150.186666 30.72 95.573333-5.12 199.68-87.04 257.706667-3.413333 1.706667-8.533333 3.413333-13.653333 3.413333z"
    fill="currentColor" />
  <path
    d="M510.293333 914.773333c-13.653333 0-25.6-11.946667-25.6-25.6V489.813333c0-13.653333 11.946667-25.6 25.6-25.6s25.6 11.946667 25.6 25.6v399.36c0 15.36-11.946667 25.6-25.6 25.6z"
    fill="currentColor"/>
  <path
    d="M510.293333 914.773333c-6.826667 0-13.653333-1.706667-18.773333-6.826666l-141.653333-141.653334c-10.24-10.24-10.24-25.6 0-35.84s25.6-10.24 35.84 0l122.88 122.88 122.88-122.88c10.24-10.24 25.6-10.24 35.84 0s10.24 25.6 0 35.84L529.066667 907.946667c-5.12 5.12-11.946667 6.826667-18.773334 6.826666z"
    fill="currentColor" />
  <path
    d="M512 679.253333m-262.826667 0a262.826667 262.826667 0 1 0 525.653334 0 262.826667 262.826667 0 1 0-525.653334 0Z"
    fill="currentColor" opacity=".3" />
</svg>
